<svg width="350" height="80" viewBox="0 0 350 80" fill="none" xmlns="http://www.w3.org/2000/svg">
<path d="M10.0341 21.0909H19.1364L28.75 44.5455H29.1591L38.7727 21.0909H47.875V56H40.7159V33.2784H40.4261L31.392 55.8295H26.517L17.483 33.1932H17.1932V56H10.0341V21.0909ZM65.6491 56.5114C63.0014 56.5114 60.7116 55.9489 58.7798 54.8239C56.8594 53.6875 55.3764 52.108 54.331 50.0852C53.2855 48.0511 52.7628 45.6932 52.7628 43.0114C52.7628 40.3068 53.2855 37.9432 54.331 35.9205C55.3764 33.8864 56.8594 32.3068 58.7798 31.1818C60.7116 30.0455 63.0014 29.4773 65.6491 29.4773C68.2969 29.4773 70.581 30.0455 72.5014 31.1818C74.4332 32.3068 75.9219 33.8864 76.9673 35.9205C78.0128 37.9432 78.5355 40.3068 78.5355 43.0114C78.5355 45.6932 78.0128 48.0511 76.9673 50.0852C75.9219 52.108 74.4332 53.6875 72.5014 54.8239C70.581 55.9489 68.2969 56.5114 65.6491 56.5114ZM65.6832 50.8864C66.8878 50.8864 67.8935 50.5455 68.7003 49.8636C69.5071 49.1705 70.1151 48.2273 70.5241 47.0341C70.9446 45.8409 71.1548 44.483 71.1548 42.9602C71.1548 41.4375 70.9446 40.0795 70.5241 38.8864C70.1151 37.6932 69.5071 36.75 68.7003 36.0568C67.8935 35.3636 66.8878 35.017 65.6832 35.017C64.4673 35.017 63.4446 35.3636 62.6151 36.0568C61.7969 36.75 61.1776 37.6932 60.7571 38.8864C60.348 40.0795 60.1435 41.4375 60.1435 42.9602C60.1435 44.483 60.348 45.8409 60.7571 47.0341C61.1776 48.2273 61.7969 49.1705 62.6151 49.8636C63.4446 50.5455 64.4673 50.8864 65.6832 50.8864ZM90.5185 21.0909V56H83.2571V21.0909H90.5185ZM108.847 56H96.4716V21.0909H108.949C112.46 21.0909 115.483 21.7898 118.017 23.1875C120.551 24.5739 122.5 26.5682 123.864 29.1705C125.239 31.7727 125.926 34.8864 125.926 38.5114C125.926 42.1477 125.239 45.2727 123.864 47.8864C122.5 50.5 120.54 52.5057 117.983 53.9034C115.438 55.3011 112.392 56 108.847 56ZM103.852 49.6761H108.54C110.722 49.6761 112.557 49.2898 114.045 48.517C115.545 47.733 116.67 46.5227 117.42 44.8864C118.182 43.2386 118.562 41.1136 118.562 38.5114C118.562 35.9318 118.182 33.8239 117.42 32.1875C116.67 30.5511 115.551 29.3466 114.062 28.5739C112.574 27.8011 110.739 27.4148 108.557 27.4148H103.852V49.6761ZM143.189 56.5114C140.496 56.5114 138.178 55.9659 136.234 54.875C134.303 53.7727 132.814 52.2159 131.768 50.2045C130.723 48.1818 130.2 45.7898 130.2 43.0284C130.2 40.3352 130.723 37.9716 131.768 35.9375C132.814 33.9034 134.286 32.3182 136.183 31.1818C138.092 30.0455 140.331 29.4773 142.899 29.4773C144.626 29.4773 146.234 29.7557 147.723 30.3125C149.223 30.858 150.53 31.6818 151.643 32.7841C152.768 33.8864 153.643 35.2727 154.268 36.9432C154.893 38.6023 155.206 40.5455 155.206 42.7727V44.767H133.098V40.267H148.371C148.371 39.2216 148.143 38.2955 147.689 37.4886C147.234 36.6818 146.604 36.0511 145.797 35.5966C145.001 35.1307 144.075 34.8977 143.018 34.8977C141.916 34.8977 140.939 35.1534 140.087 35.6648C139.246 36.1648 138.587 36.8409 138.109 37.6932C137.632 38.5341 137.388 39.4716 137.376 40.5057V44.7841C137.376 46.0795 137.615 47.1989 138.092 48.142C138.581 49.0852 139.268 49.8125 140.155 50.3239C141.041 50.8352 142.092 51.0909 143.308 51.0909C144.115 51.0909 144.854 50.9773 145.524 50.75C146.195 50.5227 146.768 50.1818 147.246 49.7273C147.723 49.2727 148.087 48.7159 148.337 48.0568L155.053 48.5C154.712 50.1136 154.013 51.5227 152.956 52.7273C151.911 53.9205 150.558 54.8523 148.899 55.5227C147.251 56.1818 145.348 56.5114 143.189 56.5114ZM181.729 37.2841L175.081 37.6932C174.967 37.125 174.723 36.6136 174.348 36.1591C173.973 35.6932 173.479 35.3239 172.865 35.0511C172.263 34.767 171.541 34.625 170.7 34.625C169.575 34.625 168.626 34.8636 167.854 35.3409C167.081 35.8068 166.695 36.4318 166.695 37.2159C166.695 37.8409 166.945 38.3693 167.445 38.8011C167.945 39.233 168.803 39.5795 170.018 39.8409L174.757 40.7955C177.303 41.3182 179.2 42.1591 180.45 43.3182C181.7 44.4773 182.325 46 182.325 47.8864C182.325 49.6023 181.82 51.108 180.808 52.4034C179.808 53.6989 178.433 54.7102 176.683 55.4375C174.945 56.1534 172.939 56.5114 170.666 56.5114C167.2 56.5114 164.439 55.7898 162.382 54.3466C160.337 52.892 159.138 50.9148 158.786 48.4148L165.928 48.0398C166.143 49.0966 166.666 49.9034 167.496 50.4602C168.325 51.0057 169.388 51.2784 170.683 51.2784C171.956 51.2784 172.979 51.0341 173.751 50.5455C174.536 50.0455 174.933 49.4034 174.945 48.6193C174.933 47.9602 174.655 47.4205 174.109 47C173.564 46.5682 172.723 46.2386 171.587 46.0114L167.053 45.108C164.496 44.5966 162.592 43.7102 161.342 42.4489C160.104 41.1875 159.484 39.5795 159.484 37.625C159.484 35.9432 159.939 34.4943 160.848 33.2784C161.768 32.0625 163.058 31.125 164.717 30.4659C166.388 29.8068 168.342 29.4773 170.581 29.4773C173.888 29.4773 176.49 30.1761 178.388 31.5739C180.297 32.9716 181.411 34.875 181.729 37.2841ZM198.727 56.5114C196.045 56.5114 193.739 55.9432 191.807 54.8068C189.886 53.6591 188.409 52.0682 187.375 50.0341C186.352 48 185.841 45.6591 185.841 43.0114C185.841 40.3295 186.358 37.9773 187.392 35.9545C188.438 33.9205 189.92 32.3352 191.841 31.1989C193.761 30.0511 196.045 29.4773 198.693 29.4773C200.977 29.4773 202.977 29.892 204.693 30.7216C206.409 31.5511 207.767 32.7159 208.767 34.2159C209.767 35.7159 210.318 37.4773 210.42 39.5H203.568C203.375 38.1932 202.864 37.142 202.034 36.3466C201.216 35.5398 200.142 35.1364 198.812 35.1364C197.688 35.1364 196.705 35.4432 195.864 36.0568C195.034 36.6591 194.386 37.5398 193.92 38.6989C193.455 39.858 193.222 41.2614 193.222 42.9091C193.222 44.5795 193.449 46 193.903 47.1705C194.369 48.3409 195.023 49.233 195.864 49.8466C196.705 50.4602 197.688 50.767 198.812 50.767C199.642 50.767 200.386 50.5966 201.045 50.2557C201.716 49.9148 202.267 49.4205 202.699 48.7727C203.142 48.1136 203.432 47.3239 203.568 46.4034H210.42C210.307 48.4034 209.761 50.1648 208.784 51.6875C207.818 53.1989 206.483 54.3807 204.778 55.233C203.074 56.0852 201.057 56.5114 198.727 56.5114ZM215.07 56V29.8182H222.109V34.3864H222.382C222.859 32.7614 223.661 31.5341 224.786 30.7045C225.911 29.8636 227.206 29.4432 228.672 29.4432C229.036 29.4432 229.428 29.4659 229.848 29.5114C230.268 29.5568 230.638 29.6193 230.956 29.6989V36.142C230.615 36.0398 230.143 35.9489 229.541 35.8693C228.939 35.7898 228.388 35.75 227.888 35.75C226.82 35.75 225.865 35.983 225.024 36.4489C224.195 36.9034 223.536 37.5398 223.047 38.358C222.57 39.1761 222.331 40.1193 222.331 41.1875V56H215.07ZM234.71 56V29.8182H241.972V56H234.71ZM238.358 26.4432C237.278 26.4432 236.352 26.0852 235.58 25.3693C234.818 24.642 234.438 23.7727 234.438 22.7614C234.438 21.7614 234.818 20.9034 235.58 20.1875C236.352 19.4602 237.278 19.0966 238.358 19.0966C239.438 19.0966 240.358 19.4602 241.119 20.1875C241.892 20.9034 242.278 21.7614 242.278 22.7614C242.278 23.7727 241.892 24.642 241.119 25.3693C240.358 26.0852 239.438 26.4432 238.358 26.4432ZM247.788 65.8182V29.8182H254.947V34.2159H255.271C255.589 33.5114 256.05 32.7955 256.652 32.0682C257.266 31.3295 258.061 30.7159 259.038 30.2273C260.027 29.7273 261.254 29.4773 262.72 29.4773C264.629 29.4773 266.391 29.9773 268.004 30.9773C269.618 31.9659 270.908 33.4602 271.874 35.4602C272.839 37.4489 273.322 39.9432 273.322 42.9432C273.322 45.8636 272.851 48.3295 271.908 50.3409C270.976 52.3409 269.703 53.858 268.089 54.892C266.487 55.9148 264.692 56.4261 262.703 56.4261C261.294 56.4261 260.095 56.1932 259.107 55.7273C258.129 55.2614 257.328 54.6761 256.703 53.9716C256.078 53.2557 255.601 52.5341 255.271 51.8068H255.05V65.8182H247.788ZM254.896 42.9091C254.896 44.4659 255.112 45.8239 255.544 46.983C255.976 48.142 256.601 49.0455 257.419 49.6932C258.237 50.3295 259.232 50.6477 260.402 50.6477C261.584 50.6477 262.584 50.3239 263.402 49.6761C264.22 49.017 264.839 48.108 265.26 46.9489C265.692 45.7784 265.908 44.4318 265.908 42.9091C265.908 41.3977 265.697 40.0682 265.277 38.9205C264.857 37.7727 264.237 36.875 263.419 36.2273C262.601 35.5795 261.595 35.2557 260.402 35.2557C259.22 35.2557 258.22 35.5682 257.402 36.1932C256.595 36.8182 255.976 37.7045 255.544 38.8523C255.112 40 254.896 41.3523 254.896 42.9091ZM292.089 29.8182V35.2727H276.322V29.8182H292.089ZM279.902 23.5455H287.163V47.9545C287.163 48.625 287.266 49.1477 287.47 49.5227C287.675 49.8864 287.959 50.142 288.322 50.2898C288.697 50.4375 289.129 50.5114 289.618 50.5114C289.959 50.5114 290.3 50.483 290.641 50.4261C290.982 50.358 291.243 50.3068 291.425 50.2727L292.567 55.6761C292.203 55.7898 291.692 55.9205 291.033 56.0682C290.374 56.2273 289.572 56.3239 288.629 56.358C286.879 56.4261 285.345 56.1932 284.027 55.6591C282.72 55.125 281.703 54.2955 280.976 53.1705C280.249 52.0455 279.891 50.625 279.902 48.9091V23.5455ZM308.368 56.5114C305.72 56.5114 303.43 55.9489 301.499 54.8239C299.578 53.6875 298.095 52.108 297.05 50.0852C296.004 48.0511 295.482 45.6932 295.482 43.0114C295.482 40.3068 296.004 37.9432 297.05 35.9205C298.095 33.8864 299.578 32.3068 301.499 31.1818C303.43 30.0455 305.72 29.4773 308.368 29.4773C311.016 29.4773 313.3 30.0455 315.22 31.1818C317.152 32.3068 318.641 33.8864 319.686 35.9205C320.732 37.9432 321.254 40.3068 321.254 43.0114C321.254 45.6932 320.732 48.0511 319.686 50.0852C318.641 52.108 317.152 53.6875 315.22 54.8239C313.3 55.9489 311.016 56.5114 308.368 56.5114ZM308.402 50.8864C309.607 50.8864 310.612 50.5455 311.419 49.8636C312.226 49.1705 312.834 48.2273 313.243 47.0341C313.663 45.8409 313.874 44.483 313.874 42.9602C313.874 41.4375 313.663 40.0795 313.243 38.8864C312.834 37.6932 312.226 36.75 311.419 36.0568C310.612 35.3636 309.607 35.017 308.402 35.017C307.186 35.017 306.163 35.3636 305.334 36.0568C304.516 36.75 303.896 37.6932 303.476 38.8864C303.067 40.0795 302.862 41.4375 302.862 42.9602C302.862 44.483 303.067 45.8409 303.476 47.0341C303.896 48.2273 304.516 49.1705 305.334 49.8636C306.163 50.5455 307.186 50.8864 308.402 50.8864ZM325.976 56V29.8182H333.016V34.3864H333.288C333.766 32.7614 334.567 31.5341 335.692 30.7045C336.817 29.8636 338.112 29.4432 339.578 29.4432C339.942 29.4432 340.334 29.4659 340.754 29.5114C341.175 29.5568 341.544 29.6193 341.862 29.6989V36.142C341.521 36.0398 341.05 35.9489 340.447 35.8693C339.845 35.7898 339.294 35.75 338.794 35.75C337.726 35.75 336.771 35.983 335.93 36.4489C335.101 36.9034 334.442 37.5398 333.953 38.358C333.476 39.1761 333.237 40.1193 333.237 41.1875V56H325.976Z" fill="#FFA500"/>
</svg>
